<svg xmlns="http://www.w3.org/2000/svg" viewBox="0 0 512 512">
  <!-- Background -->
  <rect width="512" height="512" fill="#050508" rx="112" ry="112" />
  
  <!-- Outer Ring (Gold) -->
  <circle cx="256" cy="256" r="180" fill="none" stroke="#FFD700" stroke-width="12" stroke-dasharray="20 10" opacity="0.8"/>
  
  <!-- Inner Hexagon (Dark Gray) -->
  <polygon points="256,110 380,183 380,329 256,402 132,329 132,183" fill="#12121A" stroke="rgba(255,255,255,0.1)" stroke-width="6" />
  
  <!-- Brain / Core Symbol (Gold Gradient approach using flat colors for simplicity) -->
  <path d="M256 160 C210 160, 180 200, 180 256 C180 312, 210 352, 256 352 C302 352, 332 312, 332 256 C332 200, 302 160, 256 160 Z" fill="#B8860B" opacity="0.6" />
  <path d="M256 180 C230 180, 200 210, 200 256 C200 302, 230 332, 256 332 C282 332, 312 302, 312 256 C312 210, 282 180, 256 180 Z" fill="#FFD700" />
  
  <!-- Circuit lines -->
  <line x1="256" y1="110" x2="256" y2="160" stroke="#FFD700" stroke-width="6" opacity="0.7"/>
  <line x1="256" y1="352" x2="256" y2="402" stroke="#FFD700" stroke-width="6" opacity="0.7"/>
  <line x1="132" y1="256" x2="180" y2="256" stroke="#FFD700" stroke-width="6" opacity="0.7"/>
  <line x1="332" y1="256" x2="380" y2="256" stroke="#FFD700" stroke-width="6" opacity="0.7"/>
</svg>
